<svg xmlns="http://www.w3.org/2000/svg" viewBox="0 0 202.03 86.36"><defs><style>.cls-1{fill:#011e41;}.cls-2{fill:#ffb81d;}</style></defs><title>umuc-stacked-logo</title><g id="Layer_2" data-name="Layer 2"><g id="Layer_1-2" data-name="Layer 1"><path class="cls-1" d="M89.95,12.08c0-3.9-.33-4-2.06-4.27l-.63-.11a.74.74,0,0,1,.07-1c1.47.07,3.13.11,4.75.11s3.32,0,4.93-.11a.73.73,0,0,1,.07,1l-.81.11c-1.73.26-2.06.37-2.06,4.27v8.43c0,5.07,1.54,9.34,6.66,9.34,4.82,0,6.81-3.64,6.81-9.23V16c0-2.76,0-6.18-.7-7.24a2.36,2.36,0,0,0-1.84-1l-.73-.11c-.33-.26-.29-.92.07-1,1.25.07,2.65.11,4.09.11s2.53,0,3.89-.11a.71.71,0,0,1,.07,1l-.81.18c-.7.15-1.37.3-1.62.88-.51,1.1-.51,4.34-.51,7.24V20.4c0,3.35-.51,6.43-2.43,8.5A9.67,9.67,0,0,1,100,31.65c-3.46,0-5.89-.74-7.58-2.35s-2.42-4.16-2.42-7.87Z"/><path class="cls-1" d="M146.53,30.11c.37.15.34.92-.07,1.07-1.58-.07-3-.11-4.49-.11-1.73,0-3.31,0-4.93.11-.3-.15-.44-.85-.08-1.07l1-.18c1.47-.23,1.58-.52,1.58-3v-15h-.08c-1,2-1.51,3.13-2.21,4.6l-3.16,6.47c-1.25,2.57-3.09,6.66-3.76,8.38a1.07,1.07,0,0,1-1,0c-.62-2-2.21-5.59-3.05-7.43l-3.27-7.06c-.7-1.54-1.69-3.86-2.13-5h-.08c-.08,1.8-.15,4.67-.22,6.22-.07,2.24-.14,5.52-.14,8.53,0,2.43,0,3,1.61,3.28l1.22.22c.26.22.26.92,0,1.07-1.36-.07-2.5-.11-3.86-.11-1.18,0-2.5,0-3.93.11a.8.8,0,0,1-.11-1.07L116,30c1.77-.22,2.06-.77,2.28-3s.37-4.7.55-8.53c.15-2.5.37-5.55.37-7.8,0-1.73-.55-2.5-2-2.72L116,7.74c-.22-.26-.19-1,.15-1.07,1.1.07,2.09.11,3.45.11s2.57,0,3.93-.11a17.47,17.47,0,0,0,2,6.11l4,8.5c.29.62,1.25,2.46,1.73,3.31.6-1.07,1.11-2.1,1.92-3.83l3.45-7.06a38.33,38.33,0,0,0,3-7c1,.07,2.21.11,3,.11q2.32,0,3.86-.11a.64.64,0,0,1,.11,1.07l-1.21.18c-1.62.22-2,.85-2,2.8,0,5.45.08,10.89.34,16.33.11,2.47.51,2.73,1.69,2.88Z"/><path class="cls-1" d="M153,12.08c0-3.9-.33-4-2.06-4.27l-.62-.11a.74.74,0,0,1,.07-1c1.48.07,3.13.11,4.75.11s3.31,0,4.93-.11a.74.74,0,0,1,.08,1l-.81.11c-1.73.26-2.06.37-2.06,4.27v8.43c0,5.07,1.54,9.34,6.65,9.34,4.83,0,6.81-3.64,6.81-9.23V16c0-2.76,0-6.18-.71-7.24a2.33,2.33,0,0,0-1.83-1l-.74-.11c-.34-.26-.29-.92.08-1,1.24.07,2.64.11,4.08.11s2.54,0,3.89-.11a.7.7,0,0,1,.08,1l-.81.18c-.7.15-1.37.3-1.62.88-.52,1.1-.52,4.34-.52,7.24V20.4c0,3.35-.51,6.43-2.42,8.5a9.66,9.66,0,0,1-7.21,2.76c-3.46,0-5.89-.74-7.58-2.35S153,25.14,153,21.43Z"/><path class="cls-1" d="M200.57,13a1,1,0,0,1-1.18.07c-.63-2.32-2.28-5.37-7.13-5.37-4.67,0-9.38,3.31-9.38,10.85,0,7.83,4.89,11.66,9.63,11.66s6.66-3.09,7.69-5.48a.74.74,0,0,1,1.1.15,14.31,14.31,0,0,1-1.77,5.59c-.44.07-.89.22-1.29.33a21.76,21.76,0,0,1-5.74.88,16.77,16.77,0,0,1-9.41-2.46,11.6,11.6,0,0,1-5.23-10.12,12,12,0,0,1,4.64-9.75A17,17,0,0,1,192.65,6.2,28.42,28.42,0,0,1,199,7c.44.11.7.15,1,.22C200.13,8.07,200.2,10.24,200.57,13Z"/><path class="cls-1" d="M24,24.25l1.28-.54v3.15l-6.69,2.68c.11.35.4.51,1,.59v.32l5.73-2.11,10.21.71a.87.87,0,0,1-.85.59L25,29c-.19.22.38.61.38.61l-5.54,2.09H10C4.34,34,0,36.34,0,36.34l.17-.45S5.75,32.78,8,31.66H8c4-2,8.53-4.21,13.44-6.34"/><path class="cls-1" d="M34.51,30.69l-9.4-.62a.92.92,0,0,0,.61.91l7.56.54c1.1-.16,1.23-.83,1.23-.83Z"/><path class="cls-1" d="M34.14,20.34l-.86.3v7l.86.08V20.34Z"/><path class="cls-1" d="M24,22.91h0l1.28-.58V14.52l7.51.67v.51l.53.08V19l.86-.31v-2.8l-.3,0v-.58a.88.88,0,0,0,1-.7l-9.72-.72-3.79,1.48v8l-.9.46V15.55a1.51,1.51,0,0,1-1.23-.63L21,14.27a7.3,7.3,0,0,1,3.45-4,5.38,5.38,0,0,0-2,3.41l3.19-1.26,5.41.39a4.56,4.56,0,0,0-4.25-3.29,4,4,0,0,0-.78.05,8.52,8.52,0,0,1,1.46-.33V8.46A.88.88,0,0,1,27,7.72a1,1,0,0,1,.88-1,.89.89,0,0,1,1,1,1,1,0,0,1-.41.79v.76a7.59,7.59,0,0,1,6.83,4.64l1.7,1.42s-.1.52-.86.54v.34h-.35v1.92a166.91,166.91,0,0,1,20.42-6.34C59.1,11,79.35,8.25,72.92,14.6c-7,6.93-23.63,12.72-28.66,14.14l.11-.4c9.54-3.22,18-8.81,20.92-10.75,6.88-4.5-2.37-3.59-4.53-3.43-7.88.58-16.58,2.75-25,5.62v8l2.11,2a1.13,1.13,0,0,1-1.09.62l0,1.26h45V6.59H28.3C28.16,1.37,28.3,0,27.94,0s-.19,1.37-.37,6.59H7.94V30.73c3.78-2,8.36-4.32,13.49-6.68"/><path class="cls-1" d="M31.84,17.5a2.36,2.36,0,0,0-2.47-2A2.39,2.39,0,0,0,27,17.95c0,1,0,3.63,0,3.63l4.88-2A20.17,20.17,0,0,0,31.84,17.5Z"/><polygon class="cls-1" points="27.01 22.98 27.02 26.09 31.88 26.44 31.88 21.11 27.01 22.98"/><path class="cls-2" d="M74.18,11.91c-1.57-2.83-15.7-.79-17.95-.25A171.48,171.48,0,0,0,28.8,20.82,285.51,285.51,0,0,0,.66,34.7h0L.21,35.8l-.06.14.13-.07A218.28,218.28,0,0,1,31,21.47c11.38-4.22,21.69-6.67,29.83-7.26l.35,0c1.7-.13,6.2-.48,6.6.69.2.58-.63,1.47-2.45,2.67l-.24.16c-3.11,2-11.39,7.45-20.67,10.58h0l-.14.52.09,0a116.12,116.12,0,0,0,13.59-5c4.8-2.11,11.31-5.42,15.09-9.15C74.17,13.5,74.55,12.59,74.18,11.91Z"/><path class="cls-1" d="M8.24,46.42C8.24,44.17,8,44.11,7,44l-.37-.07a.43.43,0,0,1,0-.59c.86,0,1.81.05,2.74.05s1.91,0,2.84-.05a.43.43,0,0,1,0,.59l-.46.07c-1,.14-1.19.21-1.19,2.46v4.87c0,2.93.89,5.39,3.85,5.39,2.78,0,3.93-2.1,3.93-5.33V48.69c0-1.59,0-3.56-.41-4.18A1.37,1.37,0,0,0,17,44l-.42-.07c-.19-.14-.17-.54,0-.59.72,0,1.53.05,2.35.05s1.47,0,2.25-.05a.42.42,0,0,1,0,.59l-.47.11c-.4.08-.79.17-.93.51a15.26,15.26,0,0,0-.3,4.18v2.54c0,1.93-.3,3.71-1.4,4.9A5.57,5.57,0,0,1,14,57.73a6,6,0,0,1-4.38-1.36c-.95-.91-1.4-2.4-1.4-4.55Z"/><path class="cls-1" d="M25,54.86c0,1.57.09,1.8.81,1.93l.32,0c.15.14.13.53,0,.61-.74,0-1.46-.06-2.25-.06s-1.4,0-2.29.06a.45.45,0,0,1,0-.61l.47-.06c.72-.11.81-.34.81-1.91V51.73c0-1,0-1.21-.53-1.53L22,50.06a.58.58,0,0,1,0-.49,15.16,15.16,0,0,0,2.76-1.15.3.3,0,0,1,.28.17c0,.41,0,.81,0,1s.07.19.19.21a5.15,5.15,0,0,1,2.91-1.06c1.72,0,2.53,1.19,2.53,2.85v3.28c0,1.57.08,1.8.81,1.91l.49.06c.15.14.13.53,0,.61-.89,0-1.62-.06-2.4-.06s-1.42,0-2.17.06a.46.46,0,0,1,0-.61l.32,0c.72-.13.8-.36.8-1.93V51.92c0-1.08-.42-1.93-1.7-1.93a1.74,1.74,0,0,0-1.4.66C25,51,25,51.23,25,52Z"/><path class="cls-1" d="M36.29,54.86c0,1.57.09,1.8.81,1.91l.38.06a.45.45,0,0,1,0,.61c-.78,0-1.51-.06-2.29-.06s-1.43,0-2.23.06c-.17-.08-.19-.47,0-.61l.39-.06c.72-.11.8-.34.8-1.91V51.73c0-1,0-1.21-.52-1.53l-.26-.15a.55.55,0,0,1,0-.49,12.83,12.83,0,0,0,2.76-1.15.4.4,0,0,1,.3.17c0,.7-.06,1.73-.06,2.59ZM33.81,44.58a1.36,1.36,0,1,1,1.36,1.34A1.3,1.3,0,0,1,33.81,44.58Z"/><path class="cls-1" d="M44,55.07c-.34.76-.75,1.76-1,2.48a.45.45,0,0,1-.36.13.56.56,0,0,1-.39-.13c-.2-.58-.54-1.42-.8-2-.47-1-1.64-3.71-2-4.61s-.65-1.17-1.29-1.32l-.4-.08a.46.46,0,0,1,0-.62c.74,0,1.48.06,2.23.06,1,0,1.59,0,2.33-.06a.39.39,0,0,1,0,.62l-.38.06c-.29.07-.53.11-.53.24a2.12,2.12,0,0,0,.17.68c.3.78,1.38,3.42,1.7,4.06.51-1.06,1-2.36,1.57-3.7a3.51,3.51,0,0,0,.3-1c0-.15-.19-.24-.45-.28l-.51-.1a.39.39,0,0,1,.08-.62c.64,0,1.17.06,1.78.06s1.09,0,1.55-.06a.42.42,0,0,1,0,.62l-.43.08c-.64.13-.93.27-1.6,1.72Z"/><path class="cls-1" d="M50.06,52.35c-.4,0-.44,0-.44.28a3.25,3.25,0,0,0,3.2,3.44,2.2,2.2,0,0,0,2-1.06.41.41,0,0,1,.46.34,3.83,3.83,0,0,1-3.58,2.34,4,4,0,0,1-4.1-4.25,4.49,4.49,0,0,1,4.48-4.72,3,3,0,0,1,3.18,2.87,1,1,0,0,1-.1.48c-.13.19-.62.28-1.47.28ZM52,51.5a2.29,2.29,0,0,0,1-.15.54.54,0,0,0,.21-.44,1.31,1.31,0,0,0-1.4-1.38,2.17,2.17,0,0,0-2.08,1.82c0,.09,0,.15.29.15Z"/><path class="cls-1" d="M57.55,51.73c0-1,0-1.21-.54-1.53l-.25-.15a.52.52,0,0,1,0-.49,15.57,15.57,0,0,0,2.67-1.15.29.29,0,0,1,.29.19c0,.4,0,.76,0,1a.23.23,0,0,0,.21.25c.66-.47,1.36-1.11,2.08-1.11a1.07,1.07,0,0,1,1.17,1A1.17,1.17,0,0,1,62,51a1.05,1.05,0,0,1-.57-.17,1.89,1.89,0,0,0-1-.4c-.48,0-.61.49-.61,1.53v2.91c0,1.57.08,1.8.83,1.89l.83.08a.45.45,0,0,1,0,.61c-1.27,0-2-.06-2.78-.06s-1.4,0-2.21.06a.46.46,0,0,1,0-.61l.38-.06c.73-.11.81-.34.81-1.91Z"/><path class="cls-1" d="M64.11,57a6.06,6.06,0,0,1-.3-2.39.43.43,0,0,1,.59-.05c.38,1.2,1.17,2.32,2.29,2.32a1.14,1.14,0,0,0,1.19-1.19c0-.79-.7-1.3-1.44-1.65-1.11-.54-2.25-1.33-2.25-2.68,0-1.65,1.4-2.63,3.16-2.63a4.5,4.5,0,0,1,2,.43,4.93,4.93,0,0,1,.32,2.06.44.44,0,0,1-.58.11c-.32-1-1-1.79-1.83-1.79a1.13,1.13,0,0,0-1.19,1.1c0,.62.61,1.06,1.42,1.44,1.14.56,2.35,1.28,2.35,3,0,1.84-1.63,2.65-3.31,2.65A3.92,3.92,0,0,1,64.11,57Z"/><path class="cls-1" d="M74.52,54.86c0,1.57.08,1.8.81,1.91l.38.06a.46.46,0,0,1,0,.61c-.78,0-1.51-.06-2.29-.06s-1.43,0-2.23.06c-.17-.08-.19-.47,0-.61l.38-.06c.72-.11.8-.34.8-1.91V51.73c0-1,0-1.21-.52-1.53l-.26-.15a.56.56,0,0,1,0-.49,12.75,12.75,0,0,0,2.76-1.15.37.37,0,0,1,.29.17c0,.7-.06,1.73-.06,2.59ZM72,44.58a1.36,1.36,0,1,1,1.36,1.34A1.3,1.3,0,0,1,72,44.58Z"/><path class="cls-1" d="M80.53,50c-.38,0-.4,0-.4.72v3.27c0,1.33.19,2.52,1.55,2.52a1.65,1.65,0,0,0,1-.38.32.32,0,0,1,.27.42,3.33,3.33,0,0,1-2.7,1.17c-2,0-2.38-1.17-2.38-2.65V50.72c0-.74,0-.77-.39-.77h-.74a.36.36,0,0,1-.06-.58,6.62,6.62,0,0,0,1.67-.89,4,4,0,0,0,1.17-1.32.45.45,0,0,1,.59.1v1.28c0,.34,0,.4.4.4h2.1c.13.06.17.24.17.45a.68.68,0,0,1-.28.55Z"/><path class="cls-1" d="M83.29,61.55c0-.7.49-1,1.08-1l.46,0a1.1,1.1,0,0,0,.89-.43,5.4,5.4,0,0,0,1-2.65,4.07,4.07,0,0,0-.36-1.57L84.7,51.46c-.51-1.33-.67-1.64-1.47-1.81l-.42-.08c-.17-.17-.17-.53.07-.62.7,0,1.57.06,2.36.06s1.53,0,2.25-.06a.45.45,0,0,1,0,.62l-.63.13c-.49.1-.51.19-.15,1.12l.94,2.44a6.63,6.63,0,0,0,.72,1.62,6.33,6.33,0,0,0,.68-1.32l.64-1.42a12.85,12.85,0,0,0,.75-2.06c0-.19-.08-.3-.4-.37l-.72-.14a.46.46,0,0,1,0-.62c.76,0,1.55.06,2,.06s1.12,0,1.7-.06c.21.06.21.47.07.62A2.65,2.65,0,0,0,92,50a8.75,8.75,0,0,0-1.3,2.14l-1.09,2.17c-.74,1.44-2.61,5.22-3.5,7.18a1.7,1.7,0,0,1-1.62,1.15A1.06,1.06,0,0,1,83.29,61.55Z"/><path class="cls-1" d="M99.86,53c0-2.36.85-3.46,1.93-3.46,1.57,0,2.19,2.1,2.19,3.89,0,1.63-.43,3.37-1.9,3.37S99.86,55,99.86,53ZM102,48.72a4.51,4.51,0,0,0-4.65,4.63,4.2,4.2,0,0,0,4.48,4.33,4.36,4.36,0,0,0,4.64-4.59A4.26,4.26,0,0,0,102,48.72Z"/><path class="cls-1" d="M111.69,50c-.45,0-.45,0-.45.66v4.18c0,1.57.09,1.8.83,1.89l.83.08c.15.14.13.53,0,.61-1,0-1.79-.06-2.78-.06-.7,0-1.43,0-2.29.06a.45.45,0,0,1,0-.61l.47-.06c.72-.11.8-.34.8-1.91V50.65c0-.57,0-.64-.38-.64h-.76a.31.31,0,0,1-.06-.49l.91-.47a.5.5,0,0,0,.3-.47v-.38a9.46,9.46,0,0,1,.45-3,4.12,4.12,0,0,1,4-3c1.47,0,2.42.66,2.42,1.55a1.05,1.05,0,0,1-1,1,.73.73,0,0,1-.62-.3c-.67-1-1.15-1.4-1.65-1.4-.73,0-1.3,1.44-1.3,4.63v.63c0,.64,0,.68.47.68h2.23a.43.43,0,0,1,.13.34.7.7,0,0,1-.3.66Z"/><path class="cls-1" d="M138.51,56.83c.21.08.19.53,0,.61-.92,0-1.73-.06-2.59-.06s-1.91,0-2.84.06c-.17-.08-.26-.48,0-.61l.58-.11c.85-.12.91-.3.91-1.74V46.3h0c-.58,1.17-.87,1.81-1.27,2.65l-1.83,3.74c-.71,1.49-1.78,3.84-2.16,4.84a.65.65,0,0,1-.55,0c-.36-1.14-1.28-3.23-1.77-4.29L125,49.17c-.4-.9-1-2.23-1.23-2.87h0c0,1-.09,2.7-.13,3.59,0,1.29-.09,3.19-.09,4.92,0,1.41,0,1.74.94,1.89l.7.13c.15.13.15.53,0,.61-.79,0-1.44-.06-2.23-.06s-1.44,0-2.27.06a.46.46,0,0,1-.06-.61l.36,0c1-.13,1.2-.45,1.31-1.74s.22-2.72.33-4.92c.08-1.45.21-3.21.21-4.5,0-1-.32-1.45-1.14-1.57l-.73-.13c-.12-.14-.1-.56.08-.61.65,0,1.21.05,2,.05s1.49,0,2.28-.05a10,10,0,0,0,1.17,3.52l2.33,4.91c.17.36.72,1.42,1,1.91.34-.62.64-1.21,1.11-2.21l2-4.08a22.5,22.5,0,0,0,1.72-4.06c.58,0,1.27.05,1.74.05.9,0,1.64,0,2.24-.05a.37.37,0,0,1,.07.61l-.7.1c-.94.13-1.14.49-1.14,1.62,0,3.14,0,6.29.18,9.43.06,1.42.3,1.57,1,1.65Z"/><path class="cls-1" d="M144.36,55.5a.94.94,0,0,1-1,1,1.19,1.19,0,0,1-1.19-1.23,1.4,1.4,0,0,1,1.15-1.42,3.67,3.67,0,0,1,.94-.26c.11,0,.17.13.17.36Zm2.27-4.12c.09-1.86-1-2.65-2.63-2.65a5.86,5.86,0,0,0-3.27,1.34c-.7.66-.83,1.11-.83,1.36s.13.33.4.33a2.84,2.84,0,0,0,1.36-.38.89.89,0,0,0,.4-.76,1,1,0,0,1,1.13-.93c1,0,1.34.93,1.3,2l0,.55c0,.21-.05.4-.48.55-.78.31-1.59.6-2.33.86-1.47.51-1.76,1.21-1.76,2a2,2,0,0,0,2.16,2.06,3.48,3.48,0,0,0,1.81-.55c.32-.19.47-.3.57-.3s.19.1.34.25a2,2,0,0,0,1.53.6,2.94,2.94,0,0,0,2.12-.93c.06-.19-.08-.43-.2-.43a1.78,1.78,0,0,1-.72.24c-.77,0-1.08-.64-1-1.87Z"/><path class="cls-1" d="M150,51.73c0-1,0-1.21-.53-1.53l-.26-.15a.57.57,0,0,1,0-.49,15.46,15.46,0,0,0,2.67-1.15.3.3,0,0,1,.3.19c0,.4,0,.76,0,1a.23.23,0,0,0,.21.25c.66-.47,1.36-1.11,2.08-1.11a1.06,1.06,0,0,1,1.17,1A1.17,1.17,0,0,1,154.46,51a1.06,1.06,0,0,1-.57-.17,1.9,1.9,0,0,0-1-.4c-.49,0-.62.49-.62,1.53v2.91c0,1.57.09,1.8.83,1.89l.83.08a.45.45,0,0,1,0,.61c-1.27,0-2-.06-2.78-.06s-1.4,0-2.21.06c-.17-.08-.19-.47,0-.61l.38-.06c.73-.11.81-.34.81-1.91Z"/><path class="cls-1" d="M156.28,61.55c0-.7.49-1,1.08-1l.47,0a1.12,1.12,0,0,0,.9-.43,5.5,5.5,0,0,0,1-2.65,4.18,4.18,0,0,0-.37-1.57l-1.72-4.45c-.51-1.33-.66-1.64-1.46-1.81l-.43-.08c-.16-.17-.16-.53.07-.62.7,0,1.57.06,2.36.06s1.53,0,2.25-.06a.46.46,0,0,1,0,.62l-.63.13c-.5.1-.51.19-.15,1.12l.93,2.44a6.77,6.77,0,0,0,.72,1.62,6,6,0,0,0,.69-1.32l.64-1.42a12.82,12.82,0,0,0,.76-2.06c0-.19-.08-.3-.4-.37l-.73-.14a.46.46,0,0,1,0-.62c.76,0,1.55.06,2,.06s1.13,0,1.7-.06c.21.06.21.47.07.62a2.68,2.68,0,0,0-1.21.47,9,9,0,0,0-1.29,2.14l-1.09,2.17c-.74,1.44-2.61,5.22-3.5,7.18a1.68,1.68,0,0,1-1.61,1.15A1.06,1.06,0,0,1,156.28,61.55Z"/><path class="cls-1" d="M167.09,45.75c0-1.42,0-1.58-.56-1.89l-.23-.16c-.13-.08-.15-.43,0-.48.83-.23,1.94-.68,2.78-1a.29.29,0,0,1,.3.17c0,.85-.06,2.17-.06,3.08v9.41c0,1.57.09,1.8.81,1.91l.46.06c.15.14.13.53,0,.61-.87,0-1.6-.06-2.38-.06s-1.42,0-2.29.06c-.18-.08-.19-.47,0-.61l.45-.06c.71-.11.8-.34.8-1.91Z"/><path class="cls-1" d="M176.07,55.5a1,1,0,0,1-1,1,1.19,1.19,0,0,1-1.2-1.23A1.39,1.39,0,0,1,175,53.86a3.61,3.61,0,0,1,.94-.26c.1,0,.17.13.17.36Zm2.27-4.12c.09-1.86-1-2.65-2.64-2.65a5.83,5.83,0,0,0-3.27,1.34c-.7.66-.83,1.11-.83,1.36s.13.33.4.33a2.82,2.82,0,0,0,1.36-.38.88.88,0,0,0,.4-.76,1,1,0,0,1,1.13-.93c1,0,1.34.93,1.29,2l0,.55c0,.21-.06.4-.49.55-.78.31-1.59.6-2.33.86-1.46.51-1.76,1.21-1.76,2a2,2,0,0,0,2.16,2.06,3.45,3.45,0,0,0,1.8-.55c.33-.19.47-.3.58-.3s.19.1.34.25a2,2,0,0,0,1.52.6,3,3,0,0,0,2.13-.93c.07-.19-.08-.43-.18-.43a2,2,0,0,1-.72.24c-.77,0-1.09-.64-1-1.87Z"/><path class="cls-1" d="M183.92,54.86c0,1.57.09,1.8.81,1.93l.32,0a.46.46,0,0,1,0,.61c-.75,0-1.46-.06-2.25-.06s-1.41,0-2.29.06c-.17-.08-.19-.47,0-.61l.47-.06c.72-.11.81-.34.81-1.91V51.73c0-1,0-1.21-.53-1.53l-.25-.15a.54.54,0,0,1,0-.49,15.11,15.11,0,0,0,2.75-1.15.3.3,0,0,1,.28.17,8.72,8.72,0,0,0,0,1c0,.14.07.19.2.21A5.15,5.15,0,0,1,187,48.72c1.72,0,2.52,1.19,2.52,2.85v3.28c0,1.57.09,1.8.81,1.91l.48.06a.45.45,0,0,1,0,.61c-.9,0-1.61-.06-2.4-.06s-1.42,0-2.17.06c-.17-.08-.19-.47,0-.61l.32,0c.72-.13.81-.36.81-1.93V51.92c0-1.08-.43-1.93-1.7-1.93a1.73,1.73,0,0,0-1.4.66c-.28.38-.3.58-.3,1.36Z"/><path class="cls-1" d="M198.26,55.34a.83.83,0,0,1-.15.59,2,2,0,0,1-1.25.47c-1.51,0-2.66-1.44-2.66-3.63,0-1.78.91-3.2,2.36-3.2a1.71,1.71,0,0,1,1.42.72,1.62,1.62,0,0,1,.28,1Zm2.23-9.9c0-.91,0-2.23.06-3.08a.28.28,0,0,0-.29-.17c-.85.34-2,.79-2.79,1-.14.06-.12.4,0,.48l.31.2c.46.27.49.43.49,1.85v2.79c0,.22,0,.31-.13.34a4,4,0,0,0-1.24-.15,4.87,4.87,0,0,0-5.09,4.88,3.93,3.93,0,0,0,3.93,4.08,4.14,4.14,0,0,0,2.45-1l.11,0a1.46,1.46,0,0,1,0,.59l0,.31a.33.33,0,0,0,.26.24,12.89,12.89,0,0,1,3.34-.81c.24-.11.19-.63,0-.76a2.37,2.37,0,0,1-.89.19c-.36,0-.5-.66-.5-2.59Z"/><path class="cls-1" d="M8.26,69.65c0-2.25-.19-2.32-1.19-2.46l-.36-.07a.42.42,0,0,1,0-.59c.85.05,1.8.06,2.74.06s1.91,0,2.85-.06a.43.43,0,0,1,0,.59l-.47.07c-1,.14-1.19.2-1.19,2.46v4.86c0,2.94.89,5.39,3.84,5.39,2.78,0,3.93-2.1,3.93-5.33V71.92c0-1.58,0-3.56-.4-4.18A1.39,1.39,0,0,0,17,67.19l-.43-.07c-.18-.14-.17-.54,0-.59.72.05,1.53.06,2.36.06s1.47,0,2.25-.06a.41.41,0,0,1,0,.59l-.46.11c-.41.08-.78.17-.94.51a15.21,15.21,0,0,0-.3,4.18v2.54c0,1.93-.29,3.71-1.4,4.9A5.59,5.59,0,0,1,14,81a6,6,0,0,1-4.37-1.36c-1-.91-1.4-2.4-1.4-4.55Z"/><path class="cls-1" d="M25,78.08c0,1.58.08,1.81.8,1.94l.32,0c.15.15.13.53,0,.62-.75,0-1.47-.06-2.25-.06s-1.4,0-2.29.06c-.17-.08-.19-.47,0-.62L22,80c.72-.11.81-.34.81-1.92V75c0-1,0-1.21-.53-1.53L22,73.28a.56.56,0,0,1,0-.49,15,15,0,0,0,2.76-1.15.3.3,0,0,1,.28.17c0,.41,0,.81,0,1s.06.19.19.21a5.18,5.18,0,0,1,2.91-1.06c1.72,0,2.52,1.19,2.52,2.85v3.29c0,1.58.08,1.81.81,1.92l.49.06a.45.45,0,0,1,0,.62c-.89,0-1.61-.06-2.4-.06s-1.43,0-2.17.06c-.17-.08-.19-.47,0-.62l.32,0c.72-.13.8-.36.8-1.94V75.15c0-1.08-.42-1.93-1.7-1.93a1.77,1.77,0,0,0-1.41.66c-.27.38-.29.58-.29,1.36Z"/><path class="cls-1" d="M36.31,78.08c0,1.58.08,1.81.8,1.92l.39.06c.15.15.13.53,0,.62-.79,0-1.51-.06-2.3-.06s-1.42,0-2.23.06c-.17-.08-.19-.47,0-.62l.38-.06c.72-.11.8-.34.8-1.92V75c0-1,0-1.21-.53-1.53l-.25-.15a.61.61,0,0,1,0-.49,13.18,13.18,0,0,0,2.77-1.15.38.38,0,0,1,.29.17c0,.7-.06,1.73-.06,2.59ZM33.83,67.81a1.36,1.36,0,1,1,1.36,1.34A1.3,1.3,0,0,1,33.83,67.81Z"/><path class="cls-1" d="M44.07,78.3c-.34.77-.75,1.76-1,2.48a.49.49,0,0,1-.37.14.55.55,0,0,1-.38-.14c-.22-.58-.56-1.42-.81-2l-2-4.6c-.43-.92-.66-1.17-1.3-1.32l-.4-.08a.45.45,0,0,1,0-.62c.74,0,1.49.06,2.23.06,1,0,1.59,0,2.33-.06a.39.39,0,0,1,0,.62l-.38.06c-.3.07-.53.11-.53.23a2.1,2.1,0,0,0,.16.68c.3.79,1.39,3.42,1.7,4.06.51-1.06,1-2.36,1.58-3.69a3.57,3.57,0,0,0,.29-1c0-.15-.2-.24-.44-.28l-.51-.1a.4.4,0,0,1,.08-.62c.64,0,1.18.06,1.79.06s1.08,0,1.55-.06a.42.42,0,0,1,0,.62l-.43.08c-.64.13-.93.27-1.59,1.72Z"/><path class="cls-1" d="M50.1,74.73c-.26,0-.29-.06-.29-.15a2.18,2.18,0,0,1,2.08-1.82,1.31,1.31,0,0,1,1.4,1.38.51.51,0,0,1-.21.44,2.18,2.18,0,0,1-1,.15Zm3.65.85c.85,0,1.34-.08,1.46-.28a.88.88,0,0,0,.11-.49,3,3,0,0,0-3.19-2.87,4.49,4.49,0,0,0-4.49,4.72,4,4,0,0,0,4.1,4.25,3.84,3.84,0,0,0,3.59-2.34.42.42,0,0,0-.47-.34,2.2,2.2,0,0,1-2,1.07,3.26,3.26,0,0,1-3.21-3.44c0-.26,0-.28.45-.28Z"/><path class="cls-1" d="M57.58,75c0-1,0-1.21-.54-1.53l-.25-.15a.53.53,0,0,1,0-.49,15.41,15.41,0,0,0,2.68-1.15.3.3,0,0,1,.3.19c0,.4,0,.76,0,1s.08.25.2.25c.66-.47,1.37-1.1,2.09-1.1a1.07,1.07,0,0,1,1.17,1A1.17,1.17,0,0,1,62,74.22a1.05,1.05,0,0,1-.57-.17,1.89,1.89,0,0,0-1-.41c-.48,0-.61.49-.61,1.53v2.91c0,1.58.08,1.81.82,1.9l.83.08c.15.15.12.53,0,.62-1.27,0-2-.06-2.78-.06s-1.41,0-2.21.06c-.17-.08-.19-.47,0-.62l.38-.06c.72-.11.81-.34.81-1.92Z"/><path class="cls-1" d="M64.13,80.23a6.28,6.28,0,0,1-.29-2.4.43.43,0,0,1,.59,0c.38,1.19,1.17,2.32,2.3,2.32a1.13,1.13,0,0,0,1.19-1.19c0-.79-.7-1.3-1.44-1.66-1.11-.54-2.25-1.33-2.25-2.68,0-1.65,1.4-2.63,3.16-2.63a4.57,4.57,0,0,1,2,.43,4.94,4.94,0,0,1,.32,2.06c-.06.17-.42.23-.57.11-.31-1-1-1.79-1.82-1.79a1.13,1.13,0,0,0-1.19,1.11c0,.61.62,1.06,1.42,1.44,1.15.56,2.36,1.27,2.36,3,0,1.84-1.64,2.66-3.32,2.66A4,4,0,0,1,64.13,80.23Z"/><path class="cls-1" d="M73.41,69.15a1.34,1.34,0,1,0-1.36-1.34A1.31,1.31,0,0,0,73.41,69.15Zm1.12,5.26c0-.87,0-1.89.07-2.59a.41.41,0,0,0-.3-.17,12.92,12.92,0,0,1-2.76,1.15.57.57,0,0,0,0,.49l.25.15c.53.31.53.57.53,1.53v3.12c0,1.58-.08,1.81-.8,1.92l-.38.06c-.14.15-.13.53,0,.62.8,0,1.53-.06,2.23-.06s1.51,0,2.28.06a.45.45,0,0,0,.05-.62L75.35,80c-.72-.11-.81-.34-.81-1.92Z"/><path class="cls-1" d="M80.55,73.18c-.38,0-.41,0-.41.72v3.27c0,1.34.19,2.52,1.55,2.52a1.64,1.64,0,0,0,1-.38.34.34,0,0,1,.28.42,3.35,3.35,0,0,1-2.7,1.17c-2,0-2.38-1.17-2.38-2.66V73.95c0-.74,0-.76-.39-.76h-.74a.36.36,0,0,1-.07-.58,6.5,6.5,0,0,0,1.68-.89,4,4,0,0,0,1.16-1.32.46.46,0,0,1,.6.1v1.28c0,.35,0,.4.4.4h2.11c.14.06.17.24.17.45a.66.66,0,0,1-.28.55Z"/><path class="cls-1" d="M83.31,84.77c0-.7.49-1,1.08-1l.48,0a1.11,1.11,0,0,0,.88-.42,5.39,5.39,0,0,0,1-2.65,4,4,0,0,0-.36-1.58l-1.72-4.45c-.51-1.32-.66-1.64-1.46-1.81l-.42-.08c-.17-.17-.17-.53.06-.62.7,0,1.57.06,2.36.06s1.53,0,2.25-.06a.46.46,0,0,1,.05.62l-.65.13c-.49.1-.51.19-.14,1.12l.93,2.44a6.65,6.65,0,0,0,.72,1.61,6,6,0,0,0,.69-1.31l.64-1.42a12,12,0,0,0,.76-2.06c0-.19-.09-.3-.4-.37l-.73-.14a.46.46,0,0,1,0-.62c.76,0,1.55.06,2,.06s1.12,0,1.7-.06c.2.06.2.46.06.62a2.66,2.66,0,0,0-1.21.47,9.12,9.12,0,0,0-1.3,2.14L89.6,77.58C88.86,79,87,82.8,86.09,84.76a1.69,1.69,0,0,1-1.61,1.14A1.07,1.07,0,0,1,83.31,84.77Z"/><path class="cls-1" d="M111.83,70.2a.55.55,0,0,1-.68,0,3.88,3.88,0,0,0-4.12-3.1c-2.69,0-5.42,1.91-5.42,6.26,0,4.52,2.83,6.73,5.57,6.73A4.62,4.62,0,0,0,111.62,77a.43.43,0,0,1,.64.08,8.17,8.17,0,0,1-1,3.23,6,6,0,0,0-.74.19,12.83,12.83,0,0,1-3.31.51,9.7,9.7,0,0,1-5.44-1.43,6.69,6.69,0,0,1-3-5.84,7,7,0,0,1,2.68-5.63,9.9,9.9,0,0,1,5.86-1.8,16.29,16.29,0,0,1,3.67.47l.6.12C111.58,67.37,111.62,68.62,111.83,70.2Z"/><path class="cls-1" d="M115.74,76.3c0-2.36.85-3.46,1.94-3.46,1.56,0,2.18,2.1,2.18,3.88s-.42,3.38-1.9,3.38S115.74,78.22,115.74,76.3ZM117.88,72a4.51,4.51,0,0,0-4.65,4.63,4.2,4.2,0,0,0,4.48,4.34,4.36,4.36,0,0,0,4.65-4.59A4.27,4.27,0,0,0,117.88,72Z"/><path class="cls-1" d="M124.67,69c0-1.42,0-1.57-.54-1.88l-.24-.16c-.12-.08-.15-.43,0-.49.83-.23,1.93-.68,2.79-1a.27.27,0,0,1,.29.17c0,.85-.06,2.17-.06,3.08v9.41c0,1.58.08,1.81.81,1.92l.47.06c.14.15.12.53,0,.62-.88,0-1.59-.06-2.38-.06s-1.42,0-2.29.06a.45.45,0,0,1,0-.62l.45-.06c.72-.11.8-.34.8-1.92Z"/><path class="cls-1" d="M130.16,69c0-1.42,0-1.57-.56-1.88l-.23-.16c-.13-.08-.15-.43,0-.49.83-.23,1.93-.68,2.79-1a.28.28,0,0,1,.29.17c0,.85-.06,2.17-.06,3.08v9.41c0,1.58.08,1.81.8,1.92l.47.06c.14.15.13.53,0,.62-.88,0-1.6-.06-2.38-.06s-1.43,0-2.29.06c-.17-.08-.19-.47,0-.62l.44-.06c.72-.11.81-.34.81-1.92Z"/><path class="cls-1" d="M137.08,74.76c-.25,0-.3-.06-.3-.15a2.17,2.17,0,0,1,2.08-1.82,1.31,1.31,0,0,1,1.4,1.38.53.53,0,0,1-.21.44,2.23,2.23,0,0,1-1,.15Zm3.65.85c.85,0,1.33-.08,1.47-.28a1,1,0,0,0,.1-.49A3,3,0,0,0,139.12,72a4.49,4.49,0,0,0-4.48,4.72,4,4,0,0,0,4.1,4.25,3.85,3.85,0,0,0,3.59-2.34.42.42,0,0,0-.47-.34,2.21,2.21,0,0,1-2,1.07,3.26,3.26,0,0,1-3.21-3.44c0-.26,0-.28.45-.28Z"/><path class="cls-1" d="M148.55,81.69c1.31,0,2.32.52,2.32,1.61,0,1.23-1,2-2.83,2-1.63,0-2.78-.85-2.78-2.14a1.43,1.43,0,0,1,.64-1.19,2.54,2.54,0,0,1,1.44-.25Zm3.9-7.84c.18,0,.35-.3.35-.72a.52.52,0,0,0-.17-.38h-2.09a2.36,2.36,0,0,1-.93-.32,4.9,4.9,0,0,0-2.15-.45c-2.29,0-3.89,1.45-3.89,3.35a2.68,2.68,0,0,0,1.57,2.53c.08,0,.08.17.08.23,0,.29-1,1-1.36,1.12a.58.58,0,0,0-.34.54,2,2,0,0,0,1.4,1.76c.19.06,0,.33-.12.47-.33.28-1.13.75-1.32,1a1.28,1.28,0,0,0-.3.91c0,1.11,1,2.51,4,2.51a6.36,6.36,0,0,0,4.12-1.4,3.64,3.64,0,0,0,1.34-2.59c0-2.31-1.93-2.57-3.46-2.57-.92,0-1.72,0-2.33,0-.88,0-1.17-.4-1.17-.82a1,1,0,0,1,.65-.83,5.66,5.66,0,0,0,.81.08c2.69,0,3.88-1.72,3.88-3.51a3.2,3.2,0,0,0-.1-.91ZM145.93,75c0-1.47.66-2.17,1.4-2.17,1,0,1.58,1,1.58,2.48s-.59,2.19-1.4,2.19S145.93,76.59,145.93,75Z"/><path class="cls-1" d="M155.62,74.76c-.25,0-.29-.06-.29-.15a2.18,2.18,0,0,1,2.08-1.82,1.31,1.31,0,0,1,1.4,1.38.53.53,0,0,1-.2.44,2.26,2.26,0,0,1-1,.15Zm3.65.85c.85,0,1.34-.08,1.47-.28a1,1,0,0,0,.11-.49A3,3,0,0,0,157.66,72a4.49,4.49,0,0,0-4.48,4.72,4,4,0,0,0,4.09,4.25,3.83,3.83,0,0,0,3.59-2.34.41.41,0,0,0-.47-.34,2.19,2.19,0,0,1-2,1.07,3.25,3.25,0,0,1-3.21-3.44c0-.26,0-.28.45-.28Z"/></g></g></svg>